<mxfile host="app.diagrams.net" modified="2021-12-13T19:45:24.678Z" agent="5.0 (Windows NT 10.0; Win64; x64) AppleWebKit/537.36 (KHTML, like Gecko) Chrome/94.0.4606.85 YaBrowser/21.11.2.773 Yowser/2.5 Safari/537.36" etag="ul51AUy9THdPDJiyiTMP" version="15.9.5" type="github">
  <diagram id="C5RBs43oDa-KdzZeNtuy" name="Page-1">
    <mxGraphModel dx="1102" dy="585" grid="1" gridSize="10" guides="1" tooltips="1" connect="1" arrows="1" fold="1" page="1" pageScale="1" pageWidth="827" pageHeight="1169" math="0" shadow="0">
      <root>
        <mxCell id="WIyWlLk6GJQsqaUBKTNV-0" />
        <mxCell id="WIyWlLk6GJQsqaUBKTNV-1" parent="WIyWlLk6GJQsqaUBKTNV-0" />
        <mxCell id="v_lw7xvLj7ZKo0garOLE-0" value="&lt;h1&gt;ДЗ 3&lt;/h1&gt;&lt;div&gt;Составить блок-схему&lt;br&gt;нахождения среднего&lt;br&gt;арифметического четырех чисел&lt;/div&gt;" style="text;html=1;strokeColor=none;fillColor=none;spacing=5;spacingTop=-20;whiteSpace=wrap;overflow=hidden;rounded=0;" vertex="1" parent="WIyWlLk6GJQsqaUBKTNV-1">
          <mxGeometry x="109" y="20" width="190" height="120" as="geometry" />
        </mxCell>
        <mxCell id="v_lw7xvLj7ZKo0garOLE-1" value="" style="edgeStyle=orthogonalEdgeStyle;rounded=0;orthogonalLoop=1;jettySize=auto;html=1;" edge="1" parent="WIyWlLk6GJQsqaUBKTNV-1" source="v_lw7xvLj7ZKo0garOLE-2" target="v_lw7xvLj7ZKo0garOLE-4">
          <mxGeometry relative="1" as="geometry" />
        </mxCell>
        <mxCell id="v_lw7xvLj7ZKo0garOLE-2" value="start" style="rounded=1;whiteSpace=wrap;html=1;" vertex="1" parent="WIyWlLk6GJQsqaUBKTNV-1">
          <mxGeometry x="129" y="160" width="120" height="60" as="geometry" />
        </mxCell>
        <mxCell id="v_lw7xvLj7ZKo0garOLE-3" value="" style="edgeStyle=orthogonalEdgeStyle;rounded=0;orthogonalLoop=1;jettySize=auto;html=1;" edge="1" parent="WIyWlLk6GJQsqaUBKTNV-1" source="v_lw7xvLj7ZKo0garOLE-4">
          <mxGeometry relative="1" as="geometry">
            <mxPoint x="189" y="320" as="targetPoint" />
          </mxGeometry>
        </mxCell>
        <mxCell id="v_lw7xvLj7ZKo0garOLE-4" value="input&lt;br&gt;a, b, c, d" style="shape=parallelogram;perimeter=parallelogramPerimeter;whiteSpace=wrap;html=1;fixedSize=1;" vertex="1" parent="WIyWlLk6GJQsqaUBKTNV-1">
          <mxGeometry x="129" y="240" width="120" height="60" as="geometry" />
        </mxCell>
        <mxCell id="v_lw7xvLj7ZKo0garOLE-5" value="" style="edgeStyle=orthogonalEdgeStyle;rounded=0;orthogonalLoop=1;jettySize=auto;html=1;" edge="1" parent="WIyWlLk6GJQsqaUBKTNV-1" source="v_lw7xvLj7ZKo0garOLE-6" target="v_lw7xvLj7ZKo0garOLE-8">
          <mxGeometry relative="1" as="geometry" />
        </mxCell>
        <mxCell id="v_lw7xvLj7ZKo0garOLE-6" value="avg = (a + b + c + d) / 4" style="rounded=0;whiteSpace=wrap;html=1;" vertex="1" parent="WIyWlLk6GJQsqaUBKTNV-1">
          <mxGeometry x="119" y="320" width="140" height="60" as="geometry" />
        </mxCell>
        <mxCell id="v_lw7xvLj7ZKo0garOLE-7" value="" style="edgeStyle=orthogonalEdgeStyle;rounded=0;orthogonalLoop=1;jettySize=auto;html=1;" edge="1" parent="WIyWlLk6GJQsqaUBKTNV-1" source="v_lw7xvLj7ZKo0garOLE-8" target="v_lw7xvLj7ZKo0garOLE-9">
          <mxGeometry relative="1" as="geometry" />
        </mxCell>
        <mxCell id="v_lw7xvLj7ZKo0garOLE-8" value="avg" style="shape=document;whiteSpace=wrap;html=1;boundedLbl=1;" vertex="1" parent="WIyWlLk6GJQsqaUBKTNV-1">
          <mxGeometry x="129" y="410" width="120" height="80" as="geometry" />
        </mxCell>
        <mxCell id="v_lw7xvLj7ZKo0garOLE-9" value="finish" style="rounded=1;whiteSpace=wrap;html=1;" vertex="1" parent="WIyWlLk6GJQsqaUBKTNV-1">
          <mxGeometry x="129" y="520" width="120" height="60" as="geometry" />
        </mxCell>
        <mxCell id="v_lw7xvLj7ZKo0garOLE-10" value="&lt;h1&gt;ДЗ 6&lt;/h1&gt;&lt;div&gt;Составить блок-схему нахождения факториала N.&lt;br&gt;&lt;/div&gt;" style="text;html=1;strokeColor=none;fillColor=none;spacing=5;spacingTop=-20;whiteSpace=wrap;overflow=hidden;rounded=0;" vertex="1" parent="WIyWlLk6GJQsqaUBKTNV-1">
          <mxGeometry x="529" y="20" width="190" height="120" as="geometry" />
        </mxCell>
        <mxCell id="v_lw7xvLj7ZKo0garOLE-11" value="" style="edgeStyle=orthogonalEdgeStyle;rounded=0;orthogonalLoop=1;jettySize=auto;html=1;" edge="1" parent="WIyWlLk6GJQsqaUBKTNV-1" source="v_lw7xvLj7ZKo0garOLE-12" target="v_lw7xvLj7ZKo0garOLE-14">
          <mxGeometry relative="1" as="geometry" />
        </mxCell>
        <mxCell id="v_lw7xvLj7ZKo0garOLE-12" value="start" style="rounded=1;whiteSpace=wrap;html=1;" vertex="1" parent="WIyWlLk6GJQsqaUBKTNV-1">
          <mxGeometry x="539" y="160" width="120" height="60" as="geometry" />
        </mxCell>
        <mxCell id="v_lw7xvLj7ZKo0garOLE-13" value="" style="edgeStyle=orthogonalEdgeStyle;rounded=0;orthogonalLoop=1;jettySize=auto;html=1;" edge="1" parent="WIyWlLk6GJQsqaUBKTNV-1" source="v_lw7xvLj7ZKo0garOLE-14" target="v_lw7xvLj7ZKo0garOLE-16">
          <mxGeometry relative="1" as="geometry" />
        </mxCell>
        <mxCell id="v_lw7xvLj7ZKo0garOLE-14" value="input&lt;br&gt;n" style="shape=parallelogram;perimeter=parallelogramPerimeter;whiteSpace=wrap;html=1;fixedSize=1;" vertex="1" parent="WIyWlLk6GJQsqaUBKTNV-1">
          <mxGeometry x="539" y="250" width="120" height="60" as="geometry" />
        </mxCell>
        <mxCell id="v_lw7xvLj7ZKo0garOLE-15" value="" style="edgeStyle=orthogonalEdgeStyle;rounded=0;orthogonalLoop=1;jettySize=auto;html=1;" edge="1" parent="WIyWlLk6GJQsqaUBKTNV-1" source="v_lw7xvLj7ZKo0garOLE-16" target="v_lw7xvLj7ZKo0garOLE-18">
          <mxGeometry relative="1" as="geometry" />
        </mxCell>
        <mxCell id="v_lw7xvLj7ZKo0garOLE-16" value="Q = 1&lt;br&gt;N = 1" style="rounded=0;whiteSpace=wrap;html=1;" vertex="1" parent="WIyWlLk6GJQsqaUBKTNV-1">
          <mxGeometry x="529" y="340" width="140" height="60" as="geometry" />
        </mxCell>
        <mxCell id="v_lw7xvLj7ZKo0garOLE-17" value="" style="edgeStyle=orthogonalEdgeStyle;rounded=0;orthogonalLoop=1;jettySize=auto;html=1;" edge="1" parent="WIyWlLk6GJQsqaUBKTNV-1" source="v_lw7xvLj7ZKo0garOLE-18" target="v_lw7xvLj7ZKo0garOLE-21">
          <mxGeometry relative="1" as="geometry" />
        </mxCell>
        <mxCell id="v_lw7xvLj7ZKo0garOLE-18" value="N = N * Q" style="rounded=0;whiteSpace=wrap;html=1;" vertex="1" parent="WIyWlLk6GJQsqaUBKTNV-1">
          <mxGeometry x="529" y="440" width="140" height="60" as="geometry" />
        </mxCell>
        <mxCell id="v_lw7xvLj7ZKo0garOLE-19" value="" style="edgeStyle=orthogonalEdgeStyle;rounded=0;orthogonalLoop=1;jettySize=auto;html=1;" edge="1" parent="WIyWlLk6GJQsqaUBKTNV-1" source="v_lw7xvLj7ZKo0garOLE-21" target="v_lw7xvLj7ZKo0garOLE-24">
          <mxGeometry relative="1" as="geometry" />
        </mxCell>
        <mxCell id="v_lw7xvLj7ZKo0garOLE-20" value="" style="edgeStyle=orthogonalEdgeStyle;rounded=0;orthogonalLoop=1;jettySize=auto;html=1;" edge="1" parent="WIyWlLk6GJQsqaUBKTNV-1" source="v_lw7xvLj7ZKo0garOLE-21" target="v_lw7xvLj7ZKo0garOLE-27">
          <mxGeometry relative="1" as="geometry" />
        </mxCell>
        <mxCell id="v_lw7xvLj7ZKo0garOLE-21" value="n == Q" style="rhombus;whiteSpace=wrap;html=1;" vertex="1" parent="WIyWlLk6GJQsqaUBKTNV-1">
          <mxGeometry x="559" y="530" width="80" height="80" as="geometry" />
        </mxCell>
        <mxCell id="v_lw7xvLj7ZKo0garOLE-22" value="no" style="text;html=1;strokeColor=none;fillColor=none;align=center;verticalAlign=middle;whiteSpace=wrap;rounded=0;" vertex="1" parent="WIyWlLk6GJQsqaUBKTNV-1">
          <mxGeometry x="489" y="535" width="60" height="30" as="geometry" />
        </mxCell>
        <mxCell id="v_lw7xvLj7ZKo0garOLE-23" value="" style="edgeStyle=orthogonalEdgeStyle;rounded=0;orthogonalLoop=1;jettySize=auto;html=1;" edge="1" parent="WIyWlLk6GJQsqaUBKTNV-1" source="v_lw7xvLj7ZKo0garOLE-24" target="v_lw7xvLj7ZKo0garOLE-25">
          <mxGeometry relative="1" as="geometry" />
        </mxCell>
        <mxCell id="v_lw7xvLj7ZKo0garOLE-24" value="print (N)" style="shape=document;whiteSpace=wrap;html=1;boundedLbl=1;" vertex="1" parent="WIyWlLk6GJQsqaUBKTNV-1">
          <mxGeometry x="539" y="650" width="120" height="80" as="geometry" />
        </mxCell>
        <mxCell id="v_lw7xvLj7ZKo0garOLE-25" value="finish" style="rounded=1;whiteSpace=wrap;html=1;" vertex="1" parent="WIyWlLk6GJQsqaUBKTNV-1">
          <mxGeometry x="539" y="770" width="120" height="60" as="geometry" />
        </mxCell>
        <mxCell id="v_lw7xvLj7ZKo0garOLE-26" style="edgeStyle=orthogonalEdgeStyle;rounded=0;orthogonalLoop=1;jettySize=auto;html=1;exitX=0.5;exitY=0;exitDx=0;exitDy=0;" edge="1" parent="WIyWlLk6GJQsqaUBKTNV-1" source="v_lw7xvLj7ZKo0garOLE-27">
          <mxGeometry relative="1" as="geometry">
            <mxPoint x="599" y="420" as="targetPoint" />
            <Array as="points">
              <mxPoint x="409" y="420" />
              <mxPoint x="529" y="420" />
            </Array>
          </mxGeometry>
        </mxCell>
        <mxCell id="v_lw7xvLj7ZKo0garOLE-27" value="Q = Q + 1" style="rounded=0;whiteSpace=wrap;html=1;" vertex="1" parent="WIyWlLk6GJQsqaUBKTNV-1">
          <mxGeometry x="339" y="540" width="140" height="60" as="geometry" />
        </mxCell>
      </root>
    </mxGraphModel>
  </diagram>
</mxfile>
